<?xml version="1.0" standalone="no"?><!-- Generator: Gravit.io --><svg xmlns="http://www.w3.org/2000/svg" xmlns:xlink="http://www.w3.org/1999/xlink" style="isolation:isolate" viewBox="150.5 308.875 23.375 19.25" width="23.375" height="19.25"><path d=" M 150.5 321.25 L 156 321.25 L 156 315.75 L 150.5 315.75 L 150.5 321.25 Z  M 150.5 328.125 L 156 328.125 L 156 322.625 L 150.5 322.625 L 150.5 328.125 Z  M 150.5 314.375 L 156 314.375 L 156 308.875 L 150.5 308.875 L 150.5 314.375 Z  M 157.375 321.25 L 173.875 321.25 L 173.875 315.75 L 157.375 315.75 L 157.375 321.25 Z  M 157.375 328.125 L 173.875 328.125 L 173.875 322.625 L 157.375 322.625 L 157.375 328.125 Z  M 157.375 308.875 L 157.375 314.375 L 173.875 314.375 L 173.875 308.875 L 157.375 308.875 Z " fill="rgb(20,31,53)"/></svg>