<?xml version="1.0" standalone="no"?><!-- Generator: Gravit.io --><svg xmlns="http://www.w3.org/2000/svg" xmlns:xlink="http://www.w3.org/1999/xlink" style="isolation:isolate" viewBox="150 618 25 25" width="25" height="25"><g><path d=" M 150 618 L 175 618 L 175 643 L 150 643 L 150 618 Z " fill="none"/><path d=" M 170.24 631.521 C 170.281 631.187 170.313 630.854 170.313 630.5 C 170.313 630.146 170.281 629.813 170.24 629.479 L 172.438 627.76 C 172.635 627.604 172.688 627.323 172.562 627.094 L 170.479 623.49 C 170.354 623.26 170.073 623.177 169.844 623.26 L 167.25 624.302 C 166.708 623.885 166.125 623.542 165.49 623.281 L 165.094 620.521 C 165.058 620.267 164.839 620.08 164.583 620.083 L 160.417 620.083 C 160.156 620.083 159.937 620.271 159.906 620.521 L 159.51 623.281 C 158.875 623.542 158.292 623.896 157.75 624.302 L 155.156 623.26 C 154.917 623.167 154.646 623.26 154.521 623.49 L 152.437 627.094 C 152.302 627.323 152.365 627.604 152.563 627.76 L 154.76 629.479 C 154.719 629.813 154.688 630.156 154.688 630.5 C 154.688 630.844 154.719 631.187 154.76 631.521 L 152.563 633.24 C 152.365 633.396 152.313 633.677 152.437 633.906 L 154.521 637.51 C 154.646 637.74 154.927 637.823 155.156 637.74 L 157.75 636.698 C 158.292 637.115 158.875 637.458 159.51 637.719 L 159.906 640.479 C 159.937 640.729 160.156 640.917 160.417 640.917 L 164.583 640.917 C 164.844 640.917 165.063 640.729 165.094 640.479 L 165.49 637.719 C 166.125 637.458 166.708 637.104 167.25 636.698 L 169.844 637.74 C 170.083 637.833 170.354 637.74 170.479 637.51 L 172.562 633.906 C 172.688 633.677 172.635 633.396 172.438 633.24 L 170.24 631.521 Z  M 162.5 634.146 C 160.49 634.146 158.854 632.51 158.854 630.5 C 158.854 628.49 160.49 626.854 162.5 626.854 C 164.51 626.854 166.146 628.49 166.146 630.5 C 166.146 632.51 164.51 634.146 162.5 634.146 Z " fill="rgb(20,31,53)"/></g></svg>