<?xml version="1.0" standalone="no"?><!-- Generator: Gravit.io --><svg xmlns="http://www.w3.org/2000/svg" xmlns:xlink="http://www.w3.org/1999/xlink" style="isolation:isolate" viewBox="141 148.5 49 49" width="49" height="49"><g><circle vector-effect="non-scaling-stroke" cx="165.49999999999997" cy="172.99999999999997" r="24.50000000000003" fill="rgb(66,74,96)"/><path d=" M 185.718 186.835 C 185.163 181.436 180.602 177.224 175.056 177.224 L 170.033 177.224 C 169.396 177.224 168.879 176.708 168.879 176.071 L 168.879 175.526 C 168.879 175.033 169.2 174.612 169.661 174.439 C 174.564 172.595 177.921 164.551 177.24 158.866 C 176.596 153.501 172.233 149.177 166.864 148.576 C 166.427 148.527 165.994 148.503 165.567 148.502 C 165.553 148.502 165.54 148.501 165.526 148.501 C 158.982 148.486 153.672 153.787 153.672 160.328 C 153.672 165.417 156.889 172.793 161.398 174.461 C 161.84 174.624 162.121 175.063 162.121 175.534 L 162.121 176.071 C 162.121 176.708 161.604 177.224 160.968 177.224 L 155.944 177.224 C 150.398 177.224 145.837 181.436 145.282 186.835 C 149.696 193.274 157.103 197.5 165.5 197.5 C 173.897 197.5 181.304 193.274 185.718 186.835 Z " fill="rgb(251,206,157)"/><path d=" M 169.295 154.084 C 172.434 154.947 175.389 156.877 177.281 159.425 C 177.268 159.239 177.262 159.048 177.24 158.865 C 176.596 153.501 172.233 149.177 166.864 148.576 C 166.427 148.527 165.994 148.503 165.567 148.502 C 165.553 148.502 165.54 148.501 165.526 148.501 C 159.68 148.488 154.831 152.721 153.861 158.286 L 153.865 158.286 C 154.016 158.499 154.164 158.715 154.325 158.92 C 154.385 158.847 154.445 158.774 154.505 158.702 C 156.195 156.691 159.018 156.226 161.419 157.29 C 162.149 157.613 162.959 157.793 163.81 157.793 C 166.296 157.793 168.42 156.257 169.295 154.084 Z " fill="rgb(108,121,122)"/><path d=" M 185.718 186.835 C 185.163 181.436 180.601 177.224 175.056 177.224 L 173.948 177.224 L 168.879 182.293 L 162.121 182.293 L 159.586 180.603 L 156.689 177.224 L 155.944 177.224 C 150.399 177.224 145.837 181.436 145.282 186.835 C 149.696 193.274 157.103 197.5 165.5 197.5 C 173.897 197.5 181.304 193.274 185.718 186.835 Z " fill="rgb(231,236,237)"/><path d=" M 177.328 194.452 C 177.906 194.132 178.468 193.785 179.017 193.421 L 179.017 188.207 L 177.328 188.207 L 177.328 194.452 Z " fill="rgb(204,213,214)"/><path d=" M 153.672 194.452 L 153.672 188.207 L 151.983 188.207 L 151.983 193.421 C 152.532 193.785 153.094 194.132 153.672 194.452 Z " fill="rgb(204,213,214)"/><rect x="162.966" y="180.603" width="5.069" height="5.069" transform="matrix(1,0,0,1,0,0)" fill="rgb(56,69,79)"/><path d=" M 162.088 197.258 C 163.203 197.414 164.342 197.5 165.5 197.5 C 166.668 197.5 167.814 197.413 168.938 197.255 L 167.19 185.672 L 163.81 185.672 L 162.088 197.258 Z " fill="rgb(84,106,121)"/><path d=" M 162.966 181.279 L 159.586 177.224 L 155.484 177.224 C 155.425 177.224 155.386 177.283 155.407 177.337 L 158.741 185.672 L 162.966 182.857 L 162.966 181.279 Z " fill="rgb(255,255,255)"/><path d=" M 175.516 177.224 L 171.414 177.224 L 168.034 181.279 L 168.034 182.857 L 172.259 185.672 L 175.592 177.337 C 175.614 177.283 175.575 177.224 175.516 177.224 Z " fill="rgb(255,255,255)"/></g></svg>